<svg width="334" height="32" viewBox="0 0 334 32" fill="none" xmlns="http://www.w3.org/2000/svg">
<rect width="334" height="32" rx="4" fill="#FFF0ED"/>
<path d="M29 7.875C27.393 7.875 25.8221 8.35152 24.486 9.24431C23.1498 10.1371 22.1084 11.406 21.4935 12.8907C20.8785 14.3753 20.7176 16.009 21.0311 17.5851C21.3446 19.1612 22.1185 20.6089 23.2548 21.7452C24.3911 22.8815 25.8388 23.6554 27.4149 23.9689C28.991 24.2824 30.6247 24.1215 32.1093 23.5065C33.594 22.8916 34.8629 21.8502 35.7557 20.514C36.6485 19.1779 37.125 17.607 37.125 16C37.1227 13.8458 36.266 11.7805 34.7427 10.2573C33.2195 8.73403 31.1542 7.87727 29 7.875ZM29 22.875C27.6403 22.875 26.311 22.4718 25.1805 21.7164C24.0499 20.9609 23.1687 19.8872 22.6483 18.6309C22.128 17.3747 21.9918 15.9924 22.2571 14.6588C22.5224 13.3251 23.1772 12.1001 24.1386 11.1386C25.1001 10.1772 26.3251 9.52237 27.6588 9.2571C28.9924 8.99183 30.3747 9.12798 31.631 9.64833C32.8872 10.1687 33.9609 11.0499 34.7164 12.1805C35.4718 13.311 35.875 14.6403 35.875 16C35.8729 17.8227 35.1479 19.5702 33.8591 20.8591C32.5702 22.1479 30.8227 22.8729 29 22.875ZM30.25 19.75C30.25 19.9158 30.1842 20.0747 30.0669 20.1919C29.9497 20.3092 29.7908 20.375 29.625 20.375C29.2935 20.375 28.9755 20.2433 28.7411 20.0089C28.5067 19.7745 28.375 19.4565 28.375 19.125V16C28.2092 16 28.0503 15.9342 27.9331 15.8169C27.8159 15.6997 27.75 15.5408 27.75 15.375C27.75 15.2092 27.8159 15.0503 27.9331 14.9331C28.0503 14.8158 28.2092 14.75 28.375 14.75C28.7065 14.75 29.0245 14.8817 29.2589 15.1161C29.4933 15.3505 29.625 15.6685 29.625 16V19.125C29.7908 19.125 29.9497 19.1908 30.0669 19.3081C30.1842 19.4253 30.25 19.5842 30.25 19.75ZM27.75 12.5625C27.75 12.3771 27.805 12.1958 27.908 12.0417C28.011 11.8875 28.1574 11.7673 28.3287 11.6964C28.5 11.6254 28.6885 11.6068 28.8704 11.643C29.0523 11.6792 29.2193 11.7685 29.3504 11.8996C29.4815 12.0307 29.5708 12.1977 29.607 12.3796C29.6432 12.5615 29.6246 12.75 29.5536 12.9213C29.4827 13.0926 29.3625 13.239 29.2084 13.342C29.0542 13.445 28.8729 13.5 28.6875 13.5C28.4389 13.5 28.2004 13.4012 28.0246 13.2254C27.8488 13.0496 27.75 12.8111 27.75 12.5625Z" fill="#F56342"/>
<path d="M49.34 15.572H53.672V16.604H49.34V15.572ZM49.46 20H48.26V11.6H54.188V12.644H49.46V20ZM55.7092 20V13.64H56.8612V20H55.7092ZM56.2852 12.416C56.0612 12.416 55.8732 12.344 55.7212 12.2C55.5772 12.056 55.5052 11.88 55.5052 11.672C55.5052 11.456 55.5772 11.276 55.7212 11.132C55.8732 10.988 56.0612 10.916 56.2852 10.916C56.5092 10.916 56.6932 10.988 56.8372 11.132C56.9892 11.268 57.0652 11.44 57.0652 11.648C57.0652 11.864 56.9932 12.048 56.8492 12.2C56.7052 12.344 56.5172 12.416 56.2852 12.416ZM59.0608 20V11.096H60.2128V20H59.0608ZM62.4123 20V11.096H63.5643V20H62.4123ZM71.1705 20.072C70.5305 20.072 70.0345 19.9 69.6825 19.556C69.3305 19.212 69.1545 18.72 69.1545 18.08V12.248H70.3065V18.032C70.3065 18.376 70.3905 18.64 70.5585 18.824C70.7345 19.008 70.9825 19.1 71.3025 19.1C71.6625 19.1 71.9625 19 72.2025 18.8L72.5625 19.628C72.3865 19.78 72.1745 19.892 71.9265 19.964C71.6865 20.036 71.4345 20.072 71.1705 20.072ZM68.0745 14.588V13.64H72.1305V14.588H68.0745ZM77.3513 13.58C77.8713 13.58 78.3273 13.68 78.7193 13.88C79.1193 14.08 79.4313 14.384 79.6553 14.792C79.8793 15.2 79.9913 15.716 79.9913 16.34V20H78.8393V16.472C78.8393 15.856 78.6873 15.392 78.3833 15.08C78.0873 14.768 77.6673 14.612 77.1233 14.612C76.7153 14.612 76.3593 14.692 76.0553 14.852C75.7513 15.012 75.5153 15.248 75.3473 15.56C75.1873 15.872 75.1073 16.26 75.1073 16.724V20H73.9553V11.096H75.1073V15.356L74.8793 14.9C75.0873 14.484 75.4073 14.16 75.8393 13.928C76.2713 13.696 76.7753 13.58 77.3513 13.58ZM84.9553 20.072C84.2753 20.072 83.6753 19.932 83.1553 19.652C82.6433 19.372 82.2433 18.988 81.9553 18.5C81.6753 18.012 81.5353 17.452 81.5353 16.82C81.5353 16.188 81.6713 15.628 81.9433 15.14C82.2233 14.652 82.6033 14.272 83.0833 14C83.5713 13.72 84.1193 13.58 84.7273 13.58C85.3433 13.58 85.8873 13.716 86.3593 13.988C86.8313 14.26 87.1993 14.644 87.4633 15.14C87.7353 15.628 87.8713 16.2 87.8713 16.856C87.8713 16.904 87.8673 16.96 87.8593 17.024C87.8593 17.088 87.8553 17.148 87.8473 17.204H82.4353V16.376H87.2473L86.7793 16.664C86.7873 16.256 86.7033 15.892 86.5273 15.572C86.3513 15.252 86.1073 15.004 85.7953 14.828C85.4913 14.644 85.1353 14.552 84.7273 14.552C84.3273 14.552 83.9713 14.644 83.6593 14.828C83.3473 15.004 83.1033 15.256 82.9273 15.584C82.7513 15.904 82.6633 16.272 82.6633 16.688V16.88C82.6633 17.304 82.7593 17.684 82.9513 18.02C83.1513 18.348 83.4273 18.604 83.7793 18.788C84.1313 18.972 84.5353 19.064 84.9913 19.064C85.3673 19.064 85.7073 19 86.0113 18.872C86.3233 18.744 86.5953 18.552 86.8273 18.296L87.4633 19.04C87.1753 19.376 86.8153 19.632 86.3833 19.808C85.9593 19.984 85.4833 20.072 84.9553 20.072ZM92.6936 20V13.64H93.7976V15.368L93.6896 14.936C93.8656 14.496 94.1616 14.16 94.5776 13.928C94.9936 13.696 95.5056 13.58 96.1136 13.58V14.696C96.0656 14.688 96.0176 14.684 95.9696 14.684C95.9296 14.684 95.8896 14.684 95.8496 14.684C95.2336 14.684 94.7456 14.868 94.3856 15.236C94.0256 15.604 93.8456 16.136 93.8456 16.832V20H92.6936ZM100.307 20.072C99.6268 20.072 99.0268 19.932 98.5068 19.652C97.9948 19.372 97.5948 18.988 97.3068 18.5C97.0268 18.012 96.8868 17.452 96.8868 16.82C96.8868 16.188 97.0228 15.628 97.2948 15.14C97.5748 14.652 97.9548 14.272 98.4348 14C98.9228 13.72 99.4708 13.58 100.079 13.58C100.695 13.58 101.239 13.716 101.711 13.988C102.183 14.26 102.551 14.644 102.815 15.14C103.087 15.628 103.223 16.2 103.223 16.856C103.223 16.904 103.219 16.96 103.211 17.024C103.211 17.088 103.207 17.148 103.199 17.204H97.7868V16.376H102.599L102.131 16.664C102.139 16.256 102.055 15.892 101.879 15.572C101.703 15.252 101.459 15.004 101.147 14.828C100.843 14.644 100.487 14.552 100.079 14.552C99.6788 14.552 99.3228 14.644 99.0108 14.828C98.6988 15.004 98.4548 15.256 98.2788 15.584C98.1028 15.904 98.0148 16.272 98.0148 16.688V16.88C98.0148 17.304 98.1108 17.684 98.3028 18.02C98.5028 18.348 98.7788 18.604 99.1308 18.788C99.4828 18.972 99.8868 19.064 100.343 19.064C100.719 19.064 101.059 19 101.363 18.872C101.675 18.744 101.947 18.552 102.179 18.296L102.815 19.04C102.527 19.376 102.167 19.632 101.735 19.808C101.311 19.984 100.835 20.072 100.307 20.072ZM107.45 20.072C106.834 20.072 106.282 19.936 105.794 19.664C105.314 19.392 104.934 19.012 104.654 18.524C104.374 18.036 104.234 17.468 104.234 16.82C104.234 16.172 104.374 15.608 104.654 15.128C104.934 14.64 105.314 14.26 105.794 13.988C106.282 13.716 106.834 13.58 107.45 13.58C108.002 13.58 108.494 13.7 108.926 13.94C109.358 14.18 109.698 14.54 109.946 15.02C110.202 15.5 110.33 16.1 110.33 16.82C110.33 17.54 110.198 18.14 109.934 18.62C109.678 19.1 109.334 19.464 108.902 19.712C108.47 19.952 107.986 20.072 107.45 20.072ZM107.546 19.064C107.946 19.064 108.306 18.972 108.626 18.788C108.954 18.604 109.21 18.344 109.394 18.008C109.586 17.664 109.682 17.268 109.682 16.82C109.682 16.364 109.586 15.972 109.394 15.644C109.21 15.308 108.954 15.048 108.626 14.864C108.306 14.68 107.946 14.588 107.546 14.588C107.138 14.588 106.774 14.68 106.454 14.864C106.134 15.048 105.878 15.308 105.686 15.644C105.494 15.972 105.398 16.364 105.398 16.82C105.398 17.268 105.494 17.664 105.686 18.008C105.878 18.344 106.134 18.604 106.454 18.788C106.774 18.972 107.138 19.064 107.546 19.064ZM109.67 22.328V18.308L109.79 16.832L109.718 15.356V13.64H110.822V22.328H109.67ZM115.678 20.072C115.134 20.072 114.654 19.972 114.238 19.772C113.83 19.572 113.51 19.268 113.278 18.86C113.054 18.444 112.942 17.924 112.942 17.3V13.64H114.094V17.168C114.094 17.792 114.242 18.26 114.538 18.572C114.842 18.884 115.266 19.04 115.81 19.04C116.21 19.04 116.558 18.96 116.854 18.8C117.15 18.632 117.378 18.392 117.538 18.08C117.698 17.76 117.778 17.376 117.778 16.928V13.64H118.93V20H117.838V18.284L118.018 18.74C117.81 19.164 117.498 19.492 117.082 19.724C116.666 19.956 116.198 20.072 115.678 20.072ZM121.123 20V13.64H122.275V20H121.123ZM121.699 12.416C121.475 12.416 121.287 12.344 121.135 12.2C120.991 12.056 120.919 11.88 120.919 11.672C120.919 11.456 120.991 11.276 121.135 11.132C121.287 10.988 121.475 10.916 121.699 10.916C121.923 10.916 122.107 10.988 122.251 11.132C122.403 11.268 122.479 11.44 122.479 11.648C122.479 11.864 122.407 12.048 122.263 12.2C122.119 12.344 121.931 12.416 121.699 12.416ZM124.475 20V13.64H125.579V15.368L125.471 14.936C125.647 14.496 125.943 14.16 126.359 13.928C126.775 13.696 127.287 13.58 127.895 13.58V14.696C127.847 14.688 127.799 14.684 127.751 14.684C127.711 14.684 127.671 14.684 127.631 14.684C127.015 14.684 126.527 14.868 126.167 15.236C125.807 15.604 125.627 16.136 125.627 16.832V20H124.475ZM132.088 20.072C131.408 20.072 130.808 19.932 130.288 19.652C129.776 19.372 129.376 18.988 129.088 18.5C128.808 18.012 128.668 17.452 128.668 16.82C128.668 16.188 128.804 15.628 129.076 15.14C129.356 14.652 129.736 14.272 130.216 14C130.704 13.72 131.252 13.58 131.86 13.58C132.476 13.58 133.02 13.716 133.492 13.988C133.964 14.26 134.332 14.644 134.596 15.14C134.868 15.628 135.004 16.2 135.004 16.856C135.004 16.904 135 16.96 134.992 17.024C134.992 17.088 134.988 17.148 134.98 17.204H129.568V16.376H134.38L133.912 16.664C133.92 16.256 133.836 15.892 133.66 15.572C133.484 15.252 133.24 15.004 132.928 14.828C132.624 14.644 132.268 14.552 131.86 14.552C131.46 14.552 131.104 14.644 130.792 14.828C130.48 15.004 130.236 15.256 130.06 15.584C129.884 15.904 129.796 16.272 129.796 16.688V16.88C129.796 17.304 129.892 17.684 130.084 18.02C130.284 18.348 130.56 18.604 130.912 18.788C131.264 18.972 131.668 19.064 132.124 19.064C132.5 19.064 132.84 19 133.144 18.872C133.456 18.744 133.728 18.552 133.96 18.296L134.596 19.04C134.308 19.376 133.948 19.632 133.516 19.808C133.092 19.984 132.616 20.072 132.088 20.072ZM139.232 20.072C138.616 20.072 138.064 19.936 137.576 19.664C137.096 19.392 136.716 19.012 136.436 18.524C136.156 18.036 136.016 17.468 136.016 16.82C136.016 16.172 136.156 15.608 136.436 15.128C136.716 14.64 137.096 14.26 137.576 13.988C138.064 13.716 138.616 13.58 139.232 13.58C139.768 13.58 140.252 13.7 140.684 13.94C141.116 14.18 141.46 14.54 141.716 15.02C141.98 15.5 142.112 16.1 142.112 16.82C142.112 17.54 141.984 18.14 141.728 18.62C141.48 19.1 141.14 19.464 140.708 19.712C140.276 19.952 139.784 20.072 139.232 20.072ZM139.328 19.064C139.728 19.064 140.088 18.972 140.408 18.788C140.736 18.604 140.992 18.344 141.176 18.008C141.368 17.664 141.464 17.268 141.464 16.82C141.464 16.364 141.368 15.972 141.176 15.644C140.992 15.308 140.736 15.048 140.408 14.864C140.088 14.68 139.728 14.588 139.328 14.588C138.92 14.588 138.556 14.68 138.236 14.864C137.916 15.048 137.66 15.308 137.468 15.644C137.276 15.972 137.18 16.364 137.18 16.82C137.18 17.268 137.276 17.664 137.468 18.008C137.66 18.344 137.916 18.604 138.236 18.788C138.556 18.972 138.92 19.064 139.328 19.064ZM141.5 20V18.284L141.572 16.808L141.452 15.332V11.096H142.604V20H141.5ZM148.174 20V13.076C148.174 12.452 148.354 11.956 148.714 11.588C149.082 11.212 149.602 11.024 150.274 11.024C150.522 11.024 150.758 11.056 150.982 11.12C151.214 11.176 151.41 11.268 151.57 11.396L151.222 12.272C151.102 12.176 150.966 12.104 150.814 12.056C150.662 12 150.502 11.972 150.334 11.972C149.998 11.972 149.742 12.068 149.566 12.26C149.39 12.444 149.302 12.72 149.302 13.088V13.94L149.326 14.468V20H148.174ZM147.094 14.588V13.64H151.15V14.588H147.094ZM152.242 20V13.64H153.394V20H152.242ZM152.818 12.416C152.594 12.416 152.406 12.344 152.254 12.2C152.11 12.056 152.038 11.88 152.038 11.672C152.038 11.456 152.11 11.276 152.254 11.132C152.406 10.988 152.594 10.916 152.818 10.916C153.042 10.916 153.226 10.988 153.37 11.132C153.522 11.268 153.598 11.44 153.598 11.648C153.598 11.864 153.526 12.048 153.382 12.2C153.238 12.344 153.05 12.416 152.818 12.416ZM158.42 20.072C157.74 20.072 157.14 19.932 156.62 19.652C156.108 19.372 155.708 18.988 155.42 18.5C155.14 18.012 155 17.452 155 16.82C155 16.188 155.136 15.628 155.408 15.14C155.688 14.652 156.068 14.272 156.548 14C157.036 13.72 157.584 13.58 158.192 13.58C158.808 13.58 159.352 13.716 159.824 13.988C160.296 14.26 160.664 14.644 160.928 15.14C161.2 15.628 161.336 16.2 161.336 16.856C161.336 16.904 161.332 16.96 161.324 17.024C161.324 17.088 161.32 17.148 161.312 17.204H155.9V16.376H160.712L160.244 16.664C160.252 16.256 160.168 15.892 159.992 15.572C159.816 15.252 159.572 15.004 159.26 14.828C158.956 14.644 158.6 14.552 158.192 14.552C157.792 14.552 157.436 14.644 157.124 14.828C156.812 15.004 156.568 15.256 156.392 15.584C156.216 15.904 156.128 16.272 156.128 16.688V16.88C156.128 17.304 156.224 17.684 156.416 18.02C156.616 18.348 156.892 18.604 157.244 18.788C157.596 18.972 158 19.064 158.456 19.064C158.832 19.064 159.172 19 159.476 18.872C159.788 18.744 160.06 18.552 160.292 18.296L160.928 19.04C160.64 19.376 160.28 19.632 159.848 19.808C159.424 19.984 158.948 20.072 158.42 20.072ZM162.936 20V11.096H164.088V20H162.936ZM168.915 20.072C168.299 20.072 167.747 19.936 167.259 19.664C166.779 19.392 166.399 19.012 166.119 18.524C165.839 18.036 165.699 17.468 165.699 16.82C165.699 16.172 165.839 15.608 166.119 15.128C166.399 14.64 166.779 14.26 167.259 13.988C167.747 13.716 168.299 13.58 168.915 13.58C169.451 13.58 169.935 13.7 170.367 13.94C170.799 14.18 171.143 14.54 171.399 15.02C171.663 15.5 171.795 16.1 171.795 16.82C171.795 17.54 171.667 18.14 171.411 18.62C171.163 19.1 170.823 19.464 170.391 19.712C169.959 19.952 169.467 20.072 168.915 20.072ZM169.011 19.064C169.411 19.064 169.771 18.972 170.091 18.788C170.419 18.604 170.675 18.344 170.859 18.008C171.051 17.664 171.147 17.268 171.147 16.82C171.147 16.364 171.051 15.972 170.859 15.644C170.675 15.308 170.419 15.048 170.091 14.864C169.771 14.68 169.411 14.588 169.011 14.588C168.603 14.588 168.239 14.68 167.919 14.864C167.599 15.048 167.343 15.308 167.151 15.644C166.959 15.972 166.863 16.364 166.863 16.82C166.863 17.268 166.959 17.664 167.151 18.008C167.343 18.344 167.599 18.604 167.919 18.788C168.239 18.972 168.603 19.064 169.011 19.064ZM171.183 20V18.284L171.255 16.808L171.135 15.332V11.096H172.287V20H171.183ZM176.291 20.072C175.763 20.072 175.259 20 174.779 19.856C174.307 19.712 173.935 19.536 173.663 19.328L174.143 18.416C174.415 18.6 174.751 18.756 175.151 18.884C175.551 19.012 175.959 19.076 176.375 19.076C176.911 19.076 177.295 19 177.527 18.848C177.767 18.696 177.887 18.484 177.887 18.212C177.887 18.012 177.815 17.856 177.671 17.744C177.527 17.632 177.335 17.548 177.095 17.492C176.863 17.436 176.603 17.388 176.315 17.348C176.027 17.3 175.739 17.244 175.451 17.18C175.163 17.108 174.899 17.012 174.659 16.892C174.419 16.764 174.227 16.592 174.083 16.376C173.939 16.152 173.867 15.856 173.867 15.488C173.867 15.104 173.975 14.768 174.191 14.48C174.407 14.192 174.711 13.972 175.103 13.82C175.503 13.66 175.975 13.58 176.519 13.58C176.935 13.58 177.355 13.632 177.779 13.736C178.211 13.832 178.563 13.972 178.835 14.156L178.343 15.068C178.055 14.876 177.755 14.744 177.443 14.672C177.131 14.6 176.819 14.564 176.507 14.564C176.003 14.564 175.627 14.648 175.379 14.816C175.131 14.976 175.007 15.184 175.007 15.44C175.007 15.656 175.079 15.824 175.223 15.944C175.375 16.056 175.567 16.144 175.799 16.208C176.039 16.272 176.303 16.328 176.591 16.376C176.879 16.416 177.167 16.472 177.455 16.544C177.743 16.608 178.003 16.7 178.235 16.82C178.475 16.94 178.667 17.108 178.811 17.324C178.963 17.54 179.039 17.828 179.039 18.188C179.039 18.572 178.927 18.904 178.703 19.184C178.479 19.464 178.163 19.684 177.755 19.844C177.347 19.996 176.859 20.072 176.291 20.072Z" fill="#F56342"/>
</svg>
